<svg id="Layer_1" data-name="Layer 1" xmlns="http://www.w3.org/2000/svg" xmlns:xlink="http://www.w3.org/1999/xlink" viewBox="0 0 160 160"><defs><style>.cls-1{fill:#fff;}.cls-2,.cls-5,.cls-6{fill:#ffd200;}.cls-3{clip-path:url(#clip-path);}.cls-4{clip-path:url(#clip-path-2);}.cls-5{opacity:0.65;}.cls-6{opacity:0.2;}.cls-7{clip-path:url(#clip-path-3);}</style><clipPath id="clip-path"><path class="cls-1" d="M72.28,77.6a21.77,21.77,0,0,0,8.61,10.25L84.31,85a1.42,1.42,0,0,1,1.49-.21,16.51,16.51,0,0,0,5,1.26,1.43,1.43,0,0,1,1.3,1.55l-.43,5a1.44,1.44,0,0,1-1.56,1.31A24.41,24.41,0,0,1,68,67.44a1.43,1.43,0,0,1,1.55-1.31l5,.43a1.44,1.44,0,0,1,1.3,1.56,16.48,16.48,0,0,0,.38,5.18,1.45,1.45,0,0,1-.49,1.43Z"/></clipPath><clipPath id="clip-path-2"><rect class="cls-1" x="-1375.89" y="-2173.36" width="1654.31" height="3529.2" transform="translate(82.73 -145.23) rotate(-14.03)"/></clipPath><clipPath id="clip-path-3"><path class="cls-1" d="M933.34,458.14A26.87,26.87,0,0,0,940.58,473l5-2.41a1.75,1.75,0,0,1,1.84.18,20.35,20.35,0,0,0,5.66,3,1.78,1.78,0,0,1,1.1,2.25l-2,5.85a1.78,1.78,0,0,1-2.25,1.1,30.13,30.13,0,0,1-18.68-38.29,1.78,1.78,0,0,1,2.26-1.1l5.86,2a1.77,1.77,0,0,1,1.1,2.25,20,20,0,0,0-1.1,6.31,1.77,1.77,0,0,1-1,1.56Z"/></clipPath></defs><title>Artboard 12</title><path class="cls-2" d="M97.69,45.36H62.31a4,4,0,0,0-3.46,2L41.15,78a4,4,0,0,0,0,4l17.7,30.64a4,4,0,0,0,3.46,2H97.69a4,4,0,0,0,3.46-2L118.85,82a4,4,0,0,0,0-4l-17.7-30.64A4,4,0,0,0,97.69,45.36Z"/><path class="cls-1" d="M72.28,77.6a21.77,21.77,0,0,0,8.61,10.25L84.31,85a1.42,1.42,0,0,1,1.49-.21,16.51,16.51,0,0,0,5,1.26,1.43,1.43,0,0,1,1.3,1.55l-.43,5a1.44,1.44,0,0,1-1.56,1.31A24.41,24.41,0,0,1,68,67.44a1.43,1.43,0,0,1,1.55-1.31l5,.43a1.44,1.44,0,0,1,1.3,1.56,16.48,16.48,0,0,0,.38,5.18,1.45,1.45,0,0,1-.49,1.43Z"/><g class="cls-3"><rect class="cls-1" x="-1375.89" y="-2173.36" width="1654.31" height="3529.2" transform="translate(82.73 -145.23) rotate(-14.03)"/><g class="cls-4"><rect class="cls-1" x="62.59" y="62.77" width="34.46" height="34.46" transform="translate(-6.79 152.6) rotate(-85.03)"/></g></g><circle class="cls-5" cx="123.71" cy="67.93" r="2"/><circle class="cls-6" cx="138.11" cy="94.52" r="2"/><circle class="cls-6" cx="32.72" cy="102.95" r="2"/><circle class="cls-6" cx="10.29" cy="56.45" r="2"/><circle class="cls-6" cx="41.17" cy="29.42" r="2"/><circle class="cls-5" cx="37.66" cy="54.2" r="2"/><circle class="cls-5" cx="117.38" cy="120.56" r="2"/><circle class="cls-5" cx="81.96" cy="33.55" r="2"/><circle class="cls-6" cx="130.12" cy="34.41" r="2"/><path class="cls-1" d="M933.34,458.14A26.87,26.87,0,0,0,940.58,473l5-2.41a1.75,1.75,0,0,1,1.84.18,20.35,20.35,0,0,0,5.66,3,1.78,1.78,0,0,1,1.1,2.25l-2,5.85a1.78,1.78,0,0,1-2.25,1.1,30.13,30.13,0,0,1-18.68-38.29,1.78,1.78,0,0,1,2.26-1.1l5.86,2a1.77,1.77,0,0,1,1.1,2.25,20,20,0,0,0-1.1,6.31,1.77,1.77,0,0,1-1,1.56Z"/><g class="cls-7"><rect class="cls-1" x="-616.47" y="-2559.2" width="2041.38" height="4354.94"/></g></svg>