<svg xmlns:xlink="http://www.w3.org/1999/xlink" id="Layer_1" data-name="Layer 1" xmlns="http://www.w3.org/2000/svg"
     viewBox="0 0 160 160">
    <defs>
        <style>
            .cls-1{fill:#fff;}.cls-2{clip-path:url(#clip-path);}.cls-3,.cls-4,.cls-5{fill:#ffd200;}.cls-4{opacity:0.65;}.cls-5{opacity:0.2;}.cls-6{clip-path:url(#clip-path-2);}
        </style>
        <clipPath id="clip-path">
            <path class="cls-1"
                  d="M-147.72,77.6a21.77,21.77,0,0,0,8.61,10.25l3.42-2.88a1.42,1.42,0,0,1,1.49-.21,16.51,16.51,0,0,0,5,1.26,1.43,1.43,0,0,1,1.3,1.55l-.43,5a1.44,1.44,0,0,1-1.56,1.31A24.41,24.41,0,0,1-152,67.44a1.43,1.43,0,0,1,1.55-1.31l5,.43a1.44,1.44,0,0,1,1.3,1.56,16.48,16.48,0,0,0,.38,5.18,1.45,1.45,0,0,1-.49,1.43Z"/>
        </clipPath>
        <clipPath id="clip-path-2">
            <path class="cls-1"
                  d="M713.34,458.14A26.87,26.87,0,0,0,720.58,473l5-2.41a1.75,1.75,0,0,1,1.84.18,20.35,20.35,0,0,0,5.66,3,1.78,1.78,0,0,1,1.1,2.25l-2,5.85a1.78,1.78,0,0,1-2.25,1.1,30.13,30.13,0,0,1-18.68-38.29,1.78,1.78,0,0,1,2.26-1.1l5.86,2a1.77,1.77,0,0,1,1.1,2.25,20,20,0,0,0-1.1,6.31,1.77,1.77,0,0,1-1,1.56Z"/>
        </clipPath>
    </defs>
    <title>Artboard 25</title>
    <path class="cls-1"
          d="M-147.72,77.6a21.77,21.77,0,0,0,8.61,10.25l3.42-2.88a1.42,1.42,0,0,1,1.49-.21,16.51,16.51,0,0,0,5,1.26,1.43,1.43,0,0,1,1.3,1.55l-.43,5a1.44,1.44,0,0,1-1.56,1.31A24.41,24.41,0,0,1-152,67.44a1.43,1.43,0,0,1,1.55-1.31l5,.43a1.44,1.44,0,0,1,1.3,1.56,16.48,16.48,0,0,0,.38,5.18,1.45,1.45,0,0,1-.49,1.43Z"/>
    <g class="cls-2">
        <rect class="cls-1" x="-1595.89" y="-2173.36" width="1654.31" height="3529.2"
              transform="translate(76.17 -198.57) rotate(-14.03)"/>
    </g>
    <path class="cls-3"
          d="M97.69,45.36H62.31a4,4,0,0,0-3.46,2L41.15,78a4,4,0,0,0,0,4l17.7,30.64a4,4,0,0,0,3.46,2H97.69a4,4,0,0,0,3.46-2L118.85,82a4,4,0,0,0,0-4l-17.7-30.64A4,4,0,0,0,97.69,45.36Z"/>
    <rect class="cls-1" x="95.57" y="79.54" width="2.31" height="1.32"/>
    <rect class="cls-1" x="100.18" y="79.54" width="2.31" height="1.32"/>
    <polygon class="cls-1" points="58.08 71.64 78.99 62.41 99.57 71.64 78.99 80.2 58.08 71.64"/>
    <path class="cls-1" d="M65,76.9l14,5.93L93.32,76.9V88.76C90,91.06,85.58,92.71,79,92.71s-10.7-2.3-14-3.95Z"/>
    <rect class="cls-1" x="98.37" y="71.96" width="1.32" height="7.24"/>
    <rect class="cls-1" x="98.37" y="80.86" width="1.32" height="1.98"/>
    <circle class="cls-4" cx="124" cy="65.01" r="2"/>
    <circle class="cls-5" cx="141" cy="90.01" r="2"/>
    <circle class="cls-5" cx="37" cy="109.01" r="2"/>
    <circle class="cls-5" cx="10" cy="65.01" r="2"/>
    <circle class="cls-5" cx="38" cy="35.01" r="2"/>
    <circle class="cls-4" cx="37" cy="60.01" r="2"/>
    <circle class="cls-4" cx="123" cy="118.01" r="2"/>
    <circle class="cls-4" cx="79" cy="35.01" r="2"/>
    <circle class="cls-5" cx="127" cy="31.01" r="2"/>
    <path class="cls-1"
          d="M713.34,458.14A26.87,26.87,0,0,0,720.58,473l5-2.41a1.75,1.75,0,0,1,1.84.18,20.35,20.35,0,0,0,5.66,3,1.78,1.78,0,0,1,1.1,2.25l-2,5.85a1.78,1.78,0,0,1-2.25,1.1,30.13,30.13,0,0,1-18.68-38.29,1.78,1.78,0,0,1,2.26-1.1l5.86,2a1.77,1.77,0,0,1,1.1,2.25,20,20,0,0,0-1.1,6.31,1.77,1.77,0,0,1-1,1.56Z"/>
    <g class="cls-6">
        <rect class="cls-1" x="-836.47" y="-2559.2" width="2041.38" height="4354.94"/>
    </g>
</svg>