<svg id="Layer_1" data-name="Layer 1" xmlns="http://www.w3.org/2000/svg" xmlns:xlink="http://www.w3.org/1999/xlink" viewBox="0 0 160 160"><defs><style>.cls-1{fill:#fff;}.cls-2{clip-path:url(#clip-path);}.cls-3{clip-path:url(#clip-path-2);}</style><clipPath id="clip-path"><path class="cls-1" d="M-287.72-292.4a21.77,21.77,0,0,0,8.61,10.25l3.42-2.88a1.42,1.42,0,0,1,1.49-.21,16.51,16.51,0,0,0,5,1.26,1.43,1.43,0,0,1,1.3,1.55l-.43,5a1.44,1.44,0,0,1-1.56,1.31A24.41,24.41,0,0,1-292-302.56a1.43,1.43,0,0,1,1.55-1.31l5,.43a1.44,1.44,0,0,1,1.3,1.56,16.48,16.48,0,0,0,.38,5.18,1.45,1.45,0,0,1-.49,1.43Z"/></clipPath><clipPath id="clip-path-2"><path class="cls-1" d="M573.34,88.14A26.87,26.87,0,0,0,580.58,103l5-2.41a1.75,1.75,0,0,1,1.84.18,20.35,20.35,0,0,0,5.66,3,1.78,1.78,0,0,1,1.1,2.25l-2,5.85a1.78,1.78,0,0,1-2.25,1.1,30.13,30.13,0,0,1-18.68-38.29,1.78,1.78,0,0,1,2.26-1.1l5.86,2a1.77,1.77,0,0,1,1.1,2.25,20,20,0,0,0-1.1,6.31,1.77,1.77,0,0,1-1,1.56Z"/></clipPath></defs><title>Artboard 38</title><path class="cls-1" d="M-287.72-292.4a21.77,21.77,0,0,0,8.61,10.25l3.42-2.88a1.42,1.42,0,0,1,1.49-.21,16.51,16.51,0,0,0,5,1.26,1.43,1.43,0,0,1,1.3,1.55l-.43,5a1.44,1.44,0,0,1-1.56,1.31A24.41,24.41,0,0,1-292-302.56a1.43,1.43,0,0,1,1.55-1.31l5,.43a1.44,1.44,0,0,1,1.3,1.56,16.48,16.48,0,0,0,.38,5.18,1.45,1.45,0,0,1-.49,1.43Z"/><g class="cls-2"><rect class="cls-1" x="-1735.89" y="-2543.36" width="1654.31" height="3529.2" transform="translate(161.69 -243.55) rotate(-14.03)"/></g><path class="cls-1" d="M573.34,88.14A26.87,26.87,0,0,0,580.58,103l5-2.41a1.75,1.75,0,0,1,1.84.18,20.35,20.35,0,0,0,5.66,3,1.78,1.78,0,0,1,1.1,2.25l-2,5.85a1.78,1.78,0,0,1-2.25,1.1,30.13,30.13,0,0,1-18.68-38.29,1.78,1.78,0,0,1,2.26-1.1l5.86,2a1.77,1.77,0,0,1,1.1,2.25,20,20,0,0,0-1.1,6.31,1.77,1.77,0,0,1-1,1.56Z"/><g class="cls-3"><rect class="cls-1" x="-976.47" y="-2929.2" width="2041.38" height="4354.94"/></g><path class="cls-1" d="M70.1,76.7H63.5v6.6h6.6Zm13.2,0H76.7v6.6h6.6Zm13.2,0H89.9v6.6h6.6Zm6.6-23.1H99.8V47H93.2v6.6H66.8V47H60.2v6.6H56.9a6.57,6.57,0,0,0-6.57,6.6l0,46.2a6.6,6.6,0,0,0,6.6,6.6h46.2a6.62,6.62,0,0,0,6.6-6.6V60.2A6.62,6.62,0,0,0,103.1,53.6Zm0,52.8H56.9V70.1h46.2Z"/></svg>