<svg id="Layer_1" data-name="Layer 1" xmlns="http://www.w3.org/2000/svg" xmlns:xlink="http://www.w3.org/1999/xlink" viewBox="0 0 160 160"><defs><style>.cls-1,.cls-2,.cls-3{fill:#fff;}.cls-2{clip-rule:evenodd;}.cls-3{fill-rule:evenodd;}.cls-4{clip-path:url(#clip-path);}.cls-5{clip-path:url(#clip-path-2);}.cls-6{clip-path:url(#clip-path-3);}.cls-7{clip-path:url(#clip-path-4);}</style><clipPath id="clip-path"><path class="cls-1" d="M33.34,88.14A26.87,26.87,0,0,0,40.58,103l5-2.41a1.75,1.75,0,0,1,1.84.18,20.35,20.35,0,0,0,5.66,3,1.78,1.78,0,0,1,1.1,2.25l-2,5.85a1.78,1.78,0,0,1-2.25,1.1A30.13,30.13,0,0,1,31.19,74.68a1.78,1.78,0,0,1,2.26-1.1l5.86,2a1.77,1.77,0,0,1,1.1,2.25,20,20,0,0,0-1.1,6.31,1.77,1.77,0,0,1-1,1.56Z"/></clipPath><clipPath id="clip-path-2"><rect class="cls-1" x="-1516.47" y="-2929.2" width="2041.38" height="4354.94"/></clipPath><clipPath id="clip-path-3"><path class="cls-2" d="M78.24,46.94a30.74,30.74,0,1,0,30.81,30.67A30.61,30.61,0,0,0,78.24,46.94ZM70,82.9,64.58,71.75,59,82.9H55l7.53-15.33h4.18L74.06,82.9Zm26.35,0L90.93,71.75,85.35,82.9h-4l7.53-15.33H93l7.39,15.33Z"/></clipPath><clipPath id="clip-path-4"><rect class="cls-1" x="47.52" y="46.75" width="61.67" height="61.67"/></clipPath></defs><title>Artboard 41</title><polygon class="cls-3" points="112.38 72 122.1 78.11 112.38 83.95 112.38 90.34 130.46 79.61 130.46 76.75 112.38 65.89 112.38 72"/><path class="cls-1" d="M33.34,88.14A26.87,26.87,0,0,0,40.58,103l5-2.41a1.75,1.75,0,0,1,1.84.18,20.35,20.35,0,0,0,5.66,3,1.78,1.78,0,0,1,1.1,2.25l-2,5.85a1.78,1.78,0,0,1-2.25,1.1A30.13,30.13,0,0,1,31.19,74.68a1.78,1.78,0,0,1,2.26-1.1l5.86,2a1.77,1.77,0,0,1,1.1,2.25,20,20,0,0,0-1.1,6.31,1.77,1.77,0,0,1-1,1.56Z"/><g class="cls-4"><rect class="cls-1" x="-1516.47" y="-2929.2" width="2041.38" height="4354.94"/><g class="cls-5"><rect class="cls-1" x="20.39" y="72.01" width="42.53" height="42.53" transform="translate(-60.09 102.29) rotate(-71)"/></g></g><path class="cls-3" d="M78.24,46.94a30.74,30.74,0,1,0,30.81,30.67A30.61,30.61,0,0,0,78.24,46.94ZM70,82.9,64.58,71.75,59,82.9H55l7.53-15.33h4.18L74.06,82.9Zm26.35,0L90.93,71.75,85.35,82.9h-4l7.53-15.33H93l7.39,15.33Z"/><g class="cls-6"><rect class="cls-1" x="47.52" y="46.75" width="61.67" height="61.67"/><g class="cls-7"><rect class="cls-1" x="42.26" y="41.62" width="72.11" height="72.11"/></g></g></svg>