<svg id="Layer_1" data-name="Layer 1" xmlns="http://www.w3.org/2000/svg" xmlns:xlink="http://www.w3.org/1999/xlink" viewBox="0 0 160 160"><defs><style>.cls-1{fill:#fff;}.cls-2{clip-path:url(#clip-path);}</style><clipPath id="clip-path"><path class="cls-1" d="M213.34,88.14A26.87,26.87,0,0,0,220.58,103l5-2.41a1.75,1.75,0,0,1,1.84.18,20.35,20.35,0,0,0,5.66,3,1.78,1.78,0,0,1,1.1,2.25l-2,5.85a1.78,1.78,0,0,1-2.25,1.1,30.13,30.13,0,0,1-18.68-38.29,1.78,1.78,0,0,1,2.26-1.1l5.86,2a1.77,1.77,0,0,1,1.1,2.25,20,20,0,0,0-1.1,6.31,1.77,1.77,0,0,1-1,1.56Z"/></clipPath></defs><title>Artboard 40</title><path class="cls-1" d="M213.34,88.14A26.87,26.87,0,0,0,220.58,103l5-2.41a1.75,1.75,0,0,1,1.84.18,20.35,20.35,0,0,0,5.66,3,1.78,1.78,0,0,1,1.1,2.25l-2,5.85a1.78,1.78,0,0,1-2.25,1.1,30.13,30.13,0,0,1-18.68-38.29,1.78,1.78,0,0,1,2.26-1.1l5.86,2a1.77,1.77,0,0,1,1.1,2.25,20,20,0,0,0-1.1,6.31,1.77,1.77,0,0,1-1,1.56Z"/><g class="cls-2"><rect class="cls-1" x="-1336.47" y="-2929.2" width="2041.38" height="4354.94"/></g><path class="cls-1" d="M107,62h-6V89H62v6a3,3,0,0,0,3,3H98l12,12V65A3,3,0,0,0,107,62ZM95,80V53a3,3,0,0,0-3-3H53a3,3,0,0,0-3,3V95L62,83H92A3,3,0,0,0,95,80Z"/></svg>