<svg id="Layer_1" data-name="Layer 1" xmlns="http://www.w3.org/2000/svg" xmlns:xlink="http://www.w3.org/1999/xlink" viewBox="0 0 160 160"><defs><style>.cls-1{fill:url(#linear-gradient);}.cls-2{fill:#fff;}</style><linearGradient id="linear-gradient" x1="40.62" y1="80" x2="119.38" y2="80" gradientUnits="userSpaceOnUse"><stop offset="0" stop-color="#642b73"/><stop offset="1" stop-color="#c6426e"/></linearGradient></defs><title>Artboard 34</title><path class="cls-1" d="M97.69,45.36H62.31a4,4,0,0,0-3.46,2L41.15,78a4,4,0,0,0,0,4l17.7,30.64a4,4,0,0,0,3.46,2H97.69a4,4,0,0,0,3.46-2L118.85,82a4,4,0,0,0,0-4l-17.7-30.64A4,4,0,0,0,97.69,45.36Z"/><path class="cls-2" d="M80,64.17a14.5,14.5,0,1,0,14.5,14.5A14.5,14.5,0,0,0,80,64.17ZM77.59,83.7,73.4,79.51l1-1.05,3.17,3.16,8-8,1.06,1Z"/></svg>