<svg id="Layer_1" data-name="Layer 1" xmlns="http://www.w3.org/2000/svg" xmlns:xlink="http://www.w3.org/1999/xlink" viewBox="0 0 160 160"><defs><style>.cls-1{fill:#fff;}.cls-2{fill:url(#linear-gradient);}.cls-3{clip-path:url(#clip-path);}</style><linearGradient id="linear-gradient" x1="40.62" y1="80" x2="119.38" y2="80" gradientUnits="userSpaceOnUse"><stop offset="0" stop-color="#642b73"/><stop offset="1" stop-color="#c6426e"/></linearGradient><clipPath id="clip-path"><path class="cls-1" d="M-326.66,278.14A26.87,26.87,0,0,0-319.42,293l5-2.41a1.75,1.75,0,0,1,1.84.18,20.35,20.35,0,0,0,5.66,3,1.78,1.78,0,0,1,1.1,2.25l-2,5.85a1.78,1.78,0,0,1-2.25,1.1,30.13,30.13,0,0,1-18.68-38.29,1.78,1.78,0,0,1,2.26-1.1l5.86,2a1.77,1.77,0,0,1,1.1,2.25,20,20,0,0,0-1.1,6.31,1.77,1.77,0,0,1-1,1.56Z"/></clipPath></defs><title>Artboard 33</title><path class="cls-2" d="M97.69,45.36H62.31a4,4,0,0,0-3.46,2L41.15,78a4,4,0,0,0,0,4l17.7,30.64a4,4,0,0,0,3.46,2H97.69a4,4,0,0,0,3.46-2L118.85,82a4,4,0,0,0,0-4l-17.7-30.64A4,4,0,0,0,97.69,45.36Z"/><path class="cls-1" d="M78.56,74.55a.62.62,0,0,0-.6.6.51.51,0,0,0,.16.4.59.59,0,0,0,1-.44.51.51,0,0,0-.16-.4A.61.61,0,0,0,78.56,74.55Z"/><path class="cls-1" d="M90.2,71.47a.51.51,0,0,0-.4.16.59.59,0,0,0,.44,1,.53.53,0,0,0,.4-.16.59.59,0,0,0-.44-1Z"/><path class="cls-1" d="M69.76,69.63a.58.58,0,1,0,0,1.16.59.59,0,0,0,.6-.6.51.51,0,0,0-.16-.4A.61.61,0,0,0,69.76,69.63Z"/><path class="cls-1" d="M76.28,66.71a.46.46,0,0,0-.16.4.57.57,0,0,0,.16.4.58.58,0,0,0,.84,0,.46.46,0,0,0,.16-.4.57.57,0,0,0-.16-.4A.58.58,0,0,0,76.28,66.71Z"/><path class="cls-1" d="M73.08,72.91a.46.46,0,0,0-.16.4.57.57,0,0,0,.16.4.58.58,0,0,0,.84,0,.46.46,0,0,0,.16-.4.57.57,0,0,0-.16-.4A.58.58,0,0,0,73.08,72.91Z"/><path class="cls-1" d="M83.68,67.31a.51.51,0,0,0-.4.16.59.59,0,0,0,.44,1,.46.46,0,0,0,.4-.16.59.59,0,0,0-.44-1Z"/><path class="cls-1" d="M65.84,74.55a.46.46,0,0,0-.16.4.57.57,0,0,0,.16.4.66.66,0,0,0,.84,0,.46.46,0,0,0,.16-.4.57.57,0,0,0-.16-.4A.58.58,0,0,0,65.84,74.55Z"/><path class="cls-1" d="M97.14,76a6.25,6.25,0,0,0,.22-1.68,6.43,6.43,0,0,0-4.56-6.15A6.41,6.41,0,0,0,87,64.39a6.16,6.16,0,0,0-1.5.18,6.42,6.42,0,0,0-7.92-.65,6.29,6.29,0,0,0-3-.76A6.42,6.42,0,0,0,69.19,66l-.47,0a6.43,6.43,0,0,0-6.28,5A6.56,6.56,0,1,0,68.6,82.53a6.43,6.43,0,0,0,7.21,0,7.13,7.13,0,0,0,2.68,1.8,6.47,6.47,0,0,1,3.59,5.79V97h6.09a9.78,9.78,0,0,1,4.66-7.26v0a6.45,6.45,0,0,0,3.88-5.41,6.41,6.41,0,0,0,.43-8.3ZM85.26,78.55H69.56L68.72,78l-1.88-1.88a1.36,1.36,0,0,1-1.52-.28,1.36,1.36,0,1,1,2.32-1,1.28,1.28,0,0,1-.12.56l2,2H86.84l-2.76-2H79.76a1.35,1.35,0,0,1-1.28.88,1.36,1.36,0,1,1,1-2.32,1.67,1.67,0,0,1,.32.48h3.36L76.8,70.71l-2,2a1.41,1.41,0,0,1,.12.56,1.36,1.36,0,1,1-2.32-1,1.28,1.28,0,0,1,1.52-.28l1.4-1.28H71a1.36,1.36,0,0,1-1.24.84,1.36,1.36,0,1,1,1-2.32,1.65,1.65,0,0,1,.28.44h5.06l.4-1.3a.9.9,0,0,1-.66-.34,1.69,1.69,0,0,1-.4-1,1.36,1.36,0,0,1,2.72,0,1.28,1.28,0,0,1-.12.56s-.34.74-.74.74l-.4,1.2,6.42,3.74v-4.2a1.35,1.35,0,0,1-.88-1.28,1.36,1.36,0,1,1,2.32,1,1.67,1.67,0,0,1-.48.32v5.16S89,77.51,89,77.55h.8v-4.2a1.35,1.35,0,0,1-.88-1.28,1.36,1.36,0,1,1,2.32,1,1.67,1.67,0,0,1-.48.32v5.1h-4.3v17.6h-1.2Z"/><path class="cls-1" d="M-326.66,278.14A26.87,26.87,0,0,0-319.42,293l5-2.41a1.75,1.75,0,0,1,1.84.18,20.35,20.35,0,0,0,5.66,3,1.78,1.78,0,0,1,1.1,2.25l-2,5.85a1.78,1.78,0,0,1-2.25,1.1,30.13,30.13,0,0,1-18.68-38.29,1.78,1.78,0,0,1,2.26-1.1l5.86,2a1.77,1.77,0,0,1,1.1,2.25,20,20,0,0,0-1.1,6.31,1.77,1.77,0,0,1-1,1.56Z"/><g class="cls-3"><rect class="cls-1" x="-1876.47" y="-2739.2" width="2041.38" height="4354.94"/></g></svg>