<svg id="Layer_1" data-name="Layer 1" xmlns="http://www.w3.org/2000/svg" xmlns:xlink="http://www.w3.org/1999/xlink" viewBox="0 0 160 160"><defs><style>.cls-1{fill:#fff;}.cls-2{fill:url(#linear-gradient);}.cls-3{clip-path:url(#clip-path);}</style><linearGradient id="linear-gradient" x1="40.62" y1="80" x2="119.38" y2="80" gradientUnits="userSpaceOnUse"><stop offset="0" stop-color="#642b73"/><stop offset="1" stop-color="#c6426e"/></linearGradient><clipPath id="clip-path"><path class="cls-1" d="M33.34,278.14A26.87,26.87,0,0,0,40.58,293l5-2.41a1.75,1.75,0,0,1,1.84.18,20.35,20.35,0,0,0,5.66,3,1.78,1.78,0,0,1,1.1,2.25l-2,5.85a1.78,1.78,0,0,1-2.25,1.1,30.13,30.13,0,0,1-18.68-38.29,1.78,1.78,0,0,1,2.26-1.1l5.86,2a1.77,1.77,0,0,1,1.1,2.25,20,20,0,0,0-1.1,6.31,1.77,1.77,0,0,1-1,1.56Z"/></clipPath></defs><title>Artboard 31</title><path class="cls-2" d="M97.69,45.36H62.31a4,4,0,0,0-3.46,2L41.15,78a4,4,0,0,0,0,4l17.7,30.64a4,4,0,0,0,3.46,2H97.69a4,4,0,0,0,3.46-2L118.85,82a4,4,0,0,0,0-4l-17.7-30.64A4,4,0,0,0,97.69,45.36Z"/><path class="cls-1" d="M95.2,73.87H85.13v6.88H76.32v7A1.26,1.26,0,0,0,77.58,89H91.43l5,5V75.13A1.26,1.26,0,0,0,95.2,73.87ZM88.34,85.45H86.82V83.87h1.52Zm0-2.68H86.82V78.64h1.52Z"/><path class="cls-1" d="M82,64.39H65.65a1.25,1.25,0,0,0-1.26,1.26V83.27l5-5H82A1.26,1.26,0,0,0,83.27,77V65.65A1.25,1.25,0,0,0,82,64.39ZM74.65,75H73.4V73.55h1.25Zm1.79-4a1.9,1.9,0,0,1-.65.64,4.36,4.36,0,0,1-.41.24,2.58,2.58,0,0,0-.37.22,1,1,0,0,0-.28.25.58.58,0,0,0-.1.35H73.37a2.77,2.77,0,0,1,0-.42,1.9,1.9,0,0,1,.11-.39,1.08,1.08,0,0,1,.23-.34,1.61,1.61,0,0,1,.4-.3l.33-.17.4-.25a2.13,2.13,0,0,0,.34-.33.71.71,0,0,0,.14-.42.57.57,0,0,0-.23-.48.82.82,0,0,0-.52-.18.74.74,0,0,0-.34.07,1.3,1.3,0,0,0-.26.17,1.15,1.15,0,0,0-.21.23l-.15.21-1-.68a1.86,1.86,0,0,1,.78-.9,2.3,2.3,0,0,1,1.22-.33,2.57,2.57,0,0,1,.72.11,1.86,1.86,0,0,1,.64.33,1.73,1.73,0,0,1,.47.59,1.93,1.93,0,0,1,.18.87A1.71,1.71,0,0,1,76.44,71Z"/><path class="cls-1" d="M33.34,278.14A26.87,26.87,0,0,0,40.58,293l5-2.41a1.75,1.75,0,0,1,1.84.18,20.35,20.35,0,0,0,5.66,3,1.78,1.78,0,0,1,1.1,2.25l-2,5.85a1.78,1.78,0,0,1-2.25,1.1,30.13,30.13,0,0,1-18.68-38.29,1.78,1.78,0,0,1,2.26-1.1l5.86,2a1.77,1.77,0,0,1,1.1,2.25,20,20,0,0,0-1.1,6.31,1.77,1.77,0,0,1-1,1.56Z"/><g class="cls-3"><rect class="cls-1" x="-1516.47" y="-2739.2" width="2041.38" height="4354.94"/></g></svg>