<svg xmlns:xlink="http://www.w3.org/1999/xlink" id="Layer_1" data-name="Layer 1" xmlns="http://www.w3.org/2000/svg"
     viewBox="0 0 160 160">
    <defs>
        <style>
            .cls-1{fill:#fff;}.cls-2{clip-path:url(#clip-path);}.cls-3{fill:url(#linear-gradient);}.cls-4{clip-path:url(#clip-path-2);}
        </style>
        <clipPath id="clip-path">
            <path class="cls-1"
                  d="M72.28-102.4a21.77,21.77,0,0,0,8.61,10.25L84.31-95a1.42,1.42,0,0,1,1.49-.21,16.51,16.51,0,0,0,5,1.26,1.43,1.43,0,0,1,1.3,1.55l-.43,5a1.44,1.44,0,0,1-1.56,1.31A24.41,24.41,0,0,1,68-112.56a1.43,1.43,0,0,1,1.55-1.31l5,.43a1.44,1.44,0,0,1,1.3,1.56,16.48,16.48,0,0,0,.38,5.18,1.45,1.45,0,0,1-.49,1.43Z"/>
        </clipPath>
        <linearGradient id="linear-gradient" x1="40.62" y1="80" x2="119.38" y2="80" gradientUnits="userSpaceOnUse">
            <stop offset="0" stop-color="#642b73"/>
            <stop offset="1" stop-color="#c6426e"/>
        </linearGradient>
        <clipPath id="clip-path-2">
            <path class="cls-1"
                  d="M933.34,278.14A26.87,26.87,0,0,0,940.58,293l5-2.41a1.75,1.75,0,0,1,1.84.18,20.35,20.35,0,0,0,5.66,3,1.78,1.78,0,0,1,1.1,2.25l-2,5.85a1.78,1.78,0,0,1-2.25,1.1,30.13,30.13,0,0,1-18.68-38.29,1.78,1.78,0,0,1,2.26-1.1l5.86,2a1.77,1.77,0,0,1,1.1,2.25,20,20,0,0,0-1.1,6.31,1.77,1.77,0,0,1-1,1.56Z"/>
        </clipPath>
    </defs>
    <title>Artboard 26</title>
    <path class="cls-1"
          d="M72.28-102.4a21.77,21.77,0,0,0,8.61,10.25L84.31-95a1.42,1.42,0,0,1,1.49-.21,16.51,16.51,0,0,0,5,1.26,1.43,1.43,0,0,1,1.3,1.55l-.43,5a1.44,1.44,0,0,1-1.56,1.31A24.41,24.41,0,0,1,68-112.56a1.43,1.43,0,0,1,1.55-1.31l5,.43a1.44,1.44,0,0,1,1.3,1.56,16.48,16.48,0,0,0,.38,5.18,1.45,1.45,0,0,1-.49,1.43Z"/>
    <g class="cls-2">
        <rect class="cls-1" x="-1375.89" y="-2353.36" width="1654.31" height="3529.2"
              transform="translate(126.37 -150.6) rotate(-14.03)"/>
    </g>
    <path class="cls-3"
          d="M97.69,45.36H62.31a4,4,0,0,0-3.46,2L41.15,78a4,4,0,0,0,0,4l17.7,30.64a4,4,0,0,0,3.46,2H97.69a4,4,0,0,0,3.46-2L118.85,82a4,4,0,0,0,0-4l-17.7-30.64A4,4,0,0,0,97.69,45.36Z"/>
    <path id="White" class="cls-1"
          d="M92,67.13H68.59a1.46,1.46,0,0,0-1.46,1.46V92a1.46,1.46,0,0,0,1.46,1.46H81.21V83.28H77.78v-4h3.43V76.37c0-3.4,2.08-5.26,5.12-5.26a27.66,27.66,0,0,1,3.07.16v3.56H87.29c-1.65,0-2,.78-2,1.93V79.3h3.94l-.52,4H85.32V93.49H92A1.46,1.46,0,0,0,93.49,92V68.59A1.46,1.46,0,0,0,92,67.13Z"/>
    <path class="cls-1"
          d="M933.34,278.14A26.87,26.87,0,0,0,940.58,293l5-2.41a1.75,1.75,0,0,1,1.84.18,20.35,20.35,0,0,0,5.66,3,1.78,1.78,0,0,1,1.1,2.25l-2,5.85a1.78,1.78,0,0,1-2.25,1.1,30.13,30.13,0,0,1-18.68-38.29,1.78,1.78,0,0,1,2.26-1.1l5.86,2a1.77,1.77,0,0,1,1.1,2.25,20,20,0,0,0-1.1,6.31,1.77,1.77,0,0,1-1,1.56Z"/>
    <g class="cls-4">
        <rect class="cls-1" x="-616.47" y="-2739.2" width="2041.38" height="4354.94"/>
    </g>
</svg>