<svg id="Layer_1" data-name="Layer 1" xmlns="http://www.w3.org/2000/svg" xmlns:xlink="http://www.w3.org/1999/xlink" viewBox="0 0 160 160"><defs><style>.cls-1{fill:#fff;}.cls-2{fill:url(#linear-gradient);}.cls-3{clip-path:url(#clip-path);}.cls-4{clip-path:url(#clip-path-2);}</style><linearGradient id="linear-gradient" x1="40.62" y1="80" x2="119.38" y2="80" gradientUnits="userSpaceOnUse"><stop offset="0" stop-color="#642b73"/><stop offset="1" stop-color="#c6426e"/></linearGradient><clipPath id="clip-path"><path class="cls-1" d="M-287.72-102.4a21.77,21.77,0,0,0,8.61,10.25l3.42-2.88a1.42,1.42,0,0,1,1.49-.21,16.51,16.51,0,0,0,5,1.26,1.43,1.43,0,0,1,1.3,1.55l-.43,5a1.44,1.44,0,0,1-1.56,1.31A24.41,24.41,0,0,1-292-112.56a1.43,1.43,0,0,1,1.55-1.31l5,.43a1.44,1.44,0,0,1,1.3,1.56,16.48,16.48,0,0,0,.38,5.18,1.45,1.45,0,0,1-.49,1.43Z"/></clipPath><clipPath id="clip-path-2"><path class="cls-1" d="M573.34,278.14A26.87,26.87,0,0,0,580.58,293l5-2.41a1.75,1.75,0,0,1,1.84.18,20.35,20.35,0,0,0,5.66,3,1.78,1.78,0,0,1,1.1,2.25l-2,5.85a1.78,1.78,0,0,1-2.25,1.1,30.13,30.13,0,0,1-18.68-38.29,1.78,1.78,0,0,1,2.26-1.1l5.86,2a1.77,1.77,0,0,1,1.1,2.25,20,20,0,0,0-1.1,6.31,1.77,1.77,0,0,1-1,1.56Z"/></clipPath></defs><title>Artboard 28</title><path class="cls-2" d="M97.69,45.36H62.31a4,4,0,0,0-3.46,2L41.15,78a4,4,0,0,0,0,4l17.7,30.64a4,4,0,0,0,3.46,2H97.69a4,4,0,0,0,3.46-2L118.85,82a4,4,0,0,0,0-4l-17.7-30.64A4,4,0,0,0,97.69,45.36Z"/><polygon class="cls-1" points="80.05 70.28 80.05 82.24 70.14 82.24 80.05 70.28"/><path class="cls-1" d="M80.05,66a5,5,0,0,1-9.91,0Z"/><path class="cls-1" d="M81.68,82.24a5,5,0,0,1,9.91,0Z"/><polygon class="cls-1" points="81.68 77.95 81.68 65.98 91.59 65.98 81.68 77.95"/><path class="cls-1" d="M87.22,92.48A2,2,0,0,0,88.6,92l.68.73a2.66,2.66,0,0,1-2,.81A2.6,2.6,0,1,1,87,88.3h.08c1.65,0,2.59,1.26,2.51,3h-3.9a1.4,1.4,0,0,0,1.53,1.18m1.19-2A1.24,1.24,0,0,0,87.1,89.3a1.33,1.33,0,0,0-1.41,1.17Z"/><polygon class="cls-1" points="61.62 92.42 64.62 89.38 61.69 89.38 61.69 88.42 66.01 88.42 66.01 89.4 63.01 92.44 66.05 92.44 66.05 93.4 61.62 93.4 61.62 92.42"/><path class="cls-1" d="M69.42,92.48A2,2,0,0,0,70.8,92l.68.73a2.66,2.66,0,0,1-2,.81,2.6,2.6,0,1,1-.24-5.19h.09c1.64,0,2.58,1.26,2.5,3h-3.9a1.4,1.4,0,0,0,1.53,1.18m1.19-2A1.24,1.24,0,0,0,69.3,89.3a1.33,1.33,0,0,0-1.41,1.17Z"/><path class="cls-1" d="M78.27,90.9a2.49,2.49,0,0,1,2.5-2.6,2.21,2.21,0,0,1,1.66.75V86.11h1.06v7.28H82.43V92.7a2.11,2.11,0,0,1-1.67.78,2.5,2.5,0,0,1-2.49-2.58m4.22,0a1.58,1.58,0,1,0-1.58,1.62,1.58,1.58,0,0,0,1.58-1.62"/><path class="cls-1" d="M90.28,92.33l1-.5a1.44,1.44,0,0,0,1.28.73c.6,0,.91-.31.91-.66s-.58-.49-1.21-.62c-.85-.18-1.73-.46-1.73-1.48a1.71,1.71,0,0,1,1.93-1.51,2.28,2.28,0,0,1,2,1l-.89.49a1.28,1.28,0,0,0-1.12-.57c-.57,0-.86.28-.86.6s.46.46,1.18.62,1.75.45,1.75,1.48a1.77,1.77,0,0,1-2,1.6,2.33,2.33,0,0,1-2.19-1.15"/><polygon class="cls-1" points="97.37 91.17 96.53 92.09 96.53 93.39 95.47 93.39 95.47 86.11 96.53 86.11 96.53 90.88 98.78 88.4 100.07 88.4 98.12 90.54 100.12 93.39 98.92 93.39 97.37 91.17"/><path class="cls-1" d="M75.06,88.3a2.16,2.16,0,0,0-2.31,2.18v2.91h1.08V90.61A1.18,1.18,0,0,1,75.1,89.3c.8,0,1.2.49,1.2,1.31v2.78h1.07V90.48a2.17,2.17,0,0,0-2.31-2.18"/><path class="cls-1" d="M-287.72-102.4a21.77,21.77,0,0,0,8.61,10.25l3.42-2.88a1.42,1.42,0,0,1,1.49-.21,16.51,16.51,0,0,0,5,1.26,1.43,1.43,0,0,1,1.3,1.55l-.43,5a1.44,1.44,0,0,1-1.56,1.31A24.41,24.41,0,0,1-292-112.56a1.43,1.43,0,0,1,1.55-1.31l5,.43a1.44,1.44,0,0,1,1.3,1.56,16.48,16.48,0,0,0,.38,5.18,1.45,1.45,0,0,1-.49,1.43Z"/><g class="cls-3"><rect class="cls-1" x="-1735.89" y="-2353.36" width="1654.31" height="3529.2" transform="translate(115.63 -237.88) rotate(-14.03)"/></g><path class="cls-1" d="M573.34,278.14A26.87,26.87,0,0,0,580.58,293l5-2.41a1.75,1.75,0,0,1,1.84.18,20.35,20.35,0,0,0,5.66,3,1.78,1.78,0,0,1,1.1,2.25l-2,5.85a1.78,1.78,0,0,1-2.25,1.1,30.13,30.13,0,0,1-18.68-38.29,1.78,1.78,0,0,1,2.26-1.1l5.86,2a1.77,1.77,0,0,1,1.1,2.25,20,20,0,0,0-1.1,6.31,1.77,1.77,0,0,1-1,1.56Z"/><g class="cls-4"><rect class="cls-1" x="-976.47" y="-2739.2" width="2041.38" height="4354.94"/></g></svg>