<svg id="Layer_1" data-name="Layer 1" xmlns="http://www.w3.org/2000/svg" xmlns:xlink="http://www.w3.org/1999/xlink" viewBox="0 0 160 160"><defs><style>.cls-1{fill:#fff;}.cls-2{fill:url(#linear-gradient);}.cls-3{clip-path:url(#clip-path);}</style><linearGradient id="linear-gradient" x1="40.62" y1="80" x2="119.38" y2="80" gradientUnits="userSpaceOnUse"><stop offset="0" stop-color="#642b73"/><stop offset="1" stop-color="#c6426e"/></linearGradient><clipPath id="clip-path"><path class="cls-1" d="M213.34,278.14A26.87,26.87,0,0,0,220.58,293l5-2.41a1.75,1.75,0,0,1,1.84.18,20.35,20.35,0,0,0,5.66,3,1.78,1.78,0,0,1,1.1,2.25l-2,5.85a1.78,1.78,0,0,1-2.25,1.1,30.13,30.13,0,0,1-18.68-38.29,1.78,1.78,0,0,1,2.26-1.1l5.86,2a1.77,1.77,0,0,1,1.1,2.25,20,20,0,0,0-1.1,6.31,1.77,1.77,0,0,1-1,1.56Z"/></clipPath></defs><title>Artboard 30</title><path class="cls-2" d="M97.69,45.36H62.31a4,4,0,0,0-3.46,2L41.15,78a4,4,0,0,0,0,4l17.7,30.64a4,4,0,0,0,3.46,2H97.69a4,4,0,0,0,3.46-2L118.85,82a4,4,0,0,0,0-4l-17.7-30.64A4,4,0,0,0,97.69,45.36Z"/><path class="cls-1" d="M74.69,92.36c11.25,0,17.4-9.31,17.4-17.4,0-.26,0-.52,0-.79a12.55,12.55,0,0,0,3-3.16,12.28,12.28,0,0,1-3.51,1,6.16,6.16,0,0,0,2.68-3.38,12.27,12.27,0,0,1-3.88,1.48A6.12,6.12,0,0,0,80,75.65a17.39,17.39,0,0,1-12.61-6.39,6.12,6.12,0,0,0,1.9,8.16,6.12,6.12,0,0,1-2.78-.76v.08a6.11,6.11,0,0,0,4.91,6,6.13,6.13,0,0,1-2.76.11,6.11,6.11,0,0,0,5.71,4.24,12.32,12.32,0,0,1-7.6,2.63,11.76,11.76,0,0,1-1.45-.09,17.39,17.39,0,0,0,9.37,2.74"/><path class="cls-1" d="M213.34,278.14A26.87,26.87,0,0,0,220.58,293l5-2.41a1.75,1.75,0,0,1,1.84.18,20.35,20.35,0,0,0,5.66,3,1.78,1.78,0,0,1,1.1,2.25l-2,5.85a1.78,1.78,0,0,1-2.25,1.1,30.13,30.13,0,0,1-18.68-38.29,1.78,1.78,0,0,1,2.26-1.1l5.86,2a1.77,1.77,0,0,1,1.1,2.25,20,20,0,0,0-1.1,6.31,1.77,1.77,0,0,1-1,1.56Z"/><g class="cls-3"><rect class="cls-1" x="-1336.47" y="-2739.2" width="2041.38" height="4354.94"/></g></svg>