<svg id="Layer_1" data-name="Layer 1" xmlns="http://www.w3.org/2000/svg" xmlns:xlink="http://www.w3.org/1999/xlink" viewBox="0 0 160 160"><defs><style>.cls-1{fill:#fff;}.cls-2{fill:url(#linear-gradient);}.cls-3{clip-path:url(#clip-path);}</style><linearGradient id="linear-gradient" x1="40.62" y1="80" x2="119.38" y2="80" gradientUnits="userSpaceOnUse"><stop offset="0" stop-color="#642b73"/><stop offset="1" stop-color="#c6426e"/></linearGradient><clipPath id="clip-path"><path class="cls-1" d="M-146.66,278.14A26.87,26.87,0,0,0-139.42,293l5-2.41a1.75,1.75,0,0,1,1.84.18,20.35,20.35,0,0,0,5.66,3,1.78,1.78,0,0,1,1.1,2.25l-2,5.85a1.78,1.78,0,0,1-2.25,1.1,30.13,30.13,0,0,1-18.68-38.29,1.78,1.78,0,0,1,2.26-1.1l5.86,2a1.77,1.77,0,0,1,1.1,2.25,20,20,0,0,0-1.1,6.31,1.77,1.77,0,0,1-1,1.56Z"/></clipPath></defs><title>Artboard 32</title><path class="cls-2" d="M97.69,45.36H62.31a4,4,0,0,0-3.46,2L41.15,78a4,4,0,0,0,0,4l17.7,30.64a4,4,0,0,0,3.46,2H97.69a4,4,0,0,0,3.46-2L118.85,82a4,4,0,0,0,0-4l-17.7-30.64A4,4,0,0,0,97.69,45.36Z"/><path class="cls-1" d="M80,64.59a14.5,14.5,0,1,0,14.5,14.5A14.5,14.5,0,0,0,80,64.59Zm5.82,19.15-1.17,1.17L80,80.26l-4.65,4.65-1.17-1.17,4.65-4.65-4.65-4.65,1.17-1.17L80,77.92l4.65-4.65,1.17,1.17-4.65,4.65Z"/><path class="cls-1" d="M-146.66,278.14A26.87,26.87,0,0,0-139.42,293l5-2.41a1.75,1.75,0,0,1,1.84.18,20.35,20.35,0,0,0,5.66,3,1.78,1.78,0,0,1,1.1,2.25l-2,5.85a1.78,1.78,0,0,1-2.25,1.1,30.13,30.13,0,0,1-18.68-38.29,1.78,1.78,0,0,1,2.26-1.1l5.86,2a1.77,1.77,0,0,1,1.1,2.25,20,20,0,0,0-1.1,6.31,1.77,1.77,0,0,1-1,1.56Z"/><g class="cls-3"><rect class="cls-1" x="-1696.47" y="-2739.2" width="2041.38" height="4354.94"/></g></svg>