<svg width="233" height="56" xmlns="http://www.w3.org/2000/svg">
 <defs>
  <style>.cls-1{fill:#FFFFFF;}.cls-2{isolation:isolate;}</style>
 </defs>
 <title>Logo_horizontal</title>
 <g>
  <title>background</title>
  <rect fill="none" id="canvas_background" height="402" width="582" y="-1" x="-1"/>
 </g>
 <g>
  <title>Layer 1</title>
  <path id="svg_1" d="m13,28.87l10.62,-6.42l0,3.55l-5.74,3.6l5.71,3.4l0,3.79l-10.59,-6.28l0,-1.64z" class="cls-1"/>
  <path id="svg_2" d="m73.63,30.51l-10.63,6.31l0,-3.82l5.71,-3.42l-5.71,-3.58l0,-3.55l10.62,6.42l0.01,1.64z" class="cls-1"/>
  <path id="svg_3" d="m43.3,10.3a17.7,17.7 0 1 0 17.7,17.7a17.7,17.7 0 0 0 -17.7,-17.7zm-4.72,20.7l-3.11,-6.42l-3.21,6.42l-2.33,0l4.31,-8.82l2.41,0l4.28,8.82l-2.35,0zm17.48,0l-5.46,-6.46l-3.21,6.46l-2.33,0l4.31,-8.82l2.41,0l4.29,8.82l-0.01,0z" class="cls-1"/>
 </g>
</svg>